<svg width="24" height="24" xmlns="http://www.w3.org/2000/svg">

 <g>
  <title>background</title>
  <rect fill="none" id="canvas_background" height="402" width="582" y="-1" x="-1"/>
 </g>
 <g>
  <title>Layer 1</title>
  <path fill="#808080" id="svg_2" d="m23.4,14.1c0.2,-0.3 0.3,-0.7 0.1,-1.1l-4,-6.9c-0.2,-0.4 -0.6,-0.5 -1,-0.5c0,0.1 -0.1,0.2 -0.1,0.4c0.3,-0.5 0.1,-1.1 -0.4,-1.4l-6.9,-4c-0.4,-0.2 -0.8,-0.2 -1.1,0.1c-0.2,-0.4 -0.6,-0.7 -1,-0.7l-8,0c-0.6,0 -1,0.4 -1,1l0,22c0,0.6 0.4,1 1,1l5.3,0l2.7,0l14,0c0.6,0 1,-0.4 1,-1l0,-8c0,-0.4 -0.3,-0.8 -0.6,-0.9zm-5.2,-6.2l3,5.2l-10.6,6.1l-0.6,1.1l0,0l6.7,-11.5l1.5,-0.9zm-7.3,-5.1l5.2,3l-6.1,10.5l0,-12l0.9,-1.5zm-8.9,19.2l0,-20l6,0l0,20l-6,0zm18.2,-6l1.8,0l0,6l-12,0l0,-0.1l13.1,-7.6l-2.9,1.7z"/>
  <path fill="#808080" id="svg_3" d="m5,17c-1.1,0 -2,0.9 -2,2s0.9,2 2,2s2,-0.9 2,-2s-0.9,-2 -2,-2zm0,3c-0.6,0 -1,-0.4 -1,-1s0.4,-1 1,-1s1,0.4 1,1s-0.4,1 -1,1z"/>
 </g>
</svg>